[2026-02-10 00:57:00] INFO: ----------- Loading Dataset -----------
[2026-02-10 00:57:02] INFO: Computing Normalization
[2026-02-10 00:57:18] INFO: Class Name Order Data Loading (Class Weight): ['left_cut_in' 'no_hazard' 'object_coming_out' 'object_crossing'
 'object_emerging' 'object_hazard_light_on' 'object_meeting'
 'object_pulling_up' 'object_reversing' 'object_stopping' 'object_turning'
 'pedestrian_near_parked_vehicles' 'red_crossing_traffic_light'
 'right_cut_in' 'road_works']
[2026-02-10 00:57:18] INFO: Indice Example (Class Weight): [3 3 3 3 3 3 3 3 3 3]
[2026-02-10 00:57:18] INFO: Class Name Order (Data Loading ): ['left_cut_in' 'no_hazard' 'object_coming_out' 'object_crossing'
 'object_emerging' 'object_hazard_light_on' 'object_meeting'
 'object_pulling_up' 'object_reversing' 'object_stopping' 'object_turning'
 'pedestrian_near_parked_vehicles' 'red_crossing_traffic_light'
 'right_cut_in' 'road_works']
[2026-02-10 00:57:18] INFO: Encoded Example (Data Loading ): 0
[2026-02-10 00:57:18] INFO: cfg.loss.class_weights tensor([1.0518, 0.3961, 2.3720, 1.4440, 1.2145, 0.8260, 1.9199, 1.6666, 1.9887,
        0.9238, 0.6677, 1.0338, 1.2653, 0.6662, 1.0943])
[2026-02-10 00:57:18] INFO: cfg.data.sampler <torch.utils.data.sampler.WeightedRandomSampler object at 0x7f1b24d93f10>
[2026-02-10 00:57:18] INFO: Train batches: 1587
[2026-02-10 00:57:18] INFO: 
----------- Train Statistics -----------
[2026-02-10 00:57:18] INFO: Train videos total samples: 928
[2026-02-10 00:57:18] INFO: Train videos samples per class:

[2026-02-10 00:57:18] INFO: object_crossing                  :       54   5.82%
[2026-02-10 00:57:18] INFO: red_crossing_traffic_light       :       35   3.77%
[2026-02-10 00:57:18] INFO: object_emerging                  :       72   7.76%
[2026-02-10 00:57:18] INFO: object_meeting                   :       44   4.74%
[2026-02-10 00:57:18] INFO: right_cut_in                     :       91   9.81%
[2026-02-10 00:57:18] INFO: left_cut_in                      :       49   5.28%
[2026-02-10 00:57:18] INFO: object_turning                   :       65   7.00%
[2026-02-10 00:57:18] INFO: object_stopping                  :       57   6.14%
[2026-02-10 00:57:18] INFO: object_reversing                 :       20   2.16%
[2026-02-10 00:57:18] INFO: object_hazard_light_on           :       51   5.50%
[2026-02-10 00:57:18] INFO: pedestrian_near_parked_vehicles  :       58   6.25%
[2026-02-10 00:57:18] INFO: object_coming_out                :       21   2.26%
[2026-02-10 00:57:18] INFO: object_pulling_up                :       31   3.34%
[2026-02-10 00:57:18] INFO: road_works                       :       30   3.23%
[2026-02-10 00:57:18] INFO: no_hazard                        :      250   26.94%
[2026-02-10 00:57:18] INFO: Train sequences total samples: 50772
[2026-02-10 00:57:18] INFO: Train sequence per class:

[2026-02-10 00:57:18] INFO: object_crossing                  :     2344   4.62%
[2026-02-10 00:57:18] INFO: red_crossing_traffic_light       :     2675   5.27%
[2026-02-10 00:57:18] INFO: object_emerging                  :     2787   5.49%
[2026-02-10 00:57:18] INFO: object_meeting                   :     1763   3.47%
[2026-02-10 00:57:18] INFO: right_cut_in                     :     5081   10.01%
[2026-02-10 00:57:18] INFO: left_cut_in                      :     3218   6.34%
[2026-02-10 00:57:18] INFO: object_turning                   :     5069   9.98%
[2026-02-10 00:57:18] INFO: object_stopping                  :     3664   7.22%
[2026-02-10 00:57:18] INFO: object_reversing                 :     1702   3.35%
[2026-02-10 00:57:18] INFO: object_hazard_light_on           :     4098   8.07%
[2026-02-10 00:57:18] INFO: pedestrian_near_parked_vehicles  :     3274   6.45%
[2026-02-10 00:57:18] INFO: object_coming_out                :     1427   2.81%
[2026-02-10 00:57:18] INFO: object_pulling_up                :     2031   4.00%
[2026-02-10 00:57:18] INFO: road_works                       :     3093   6.09%
[2026-02-10 00:57:18] INFO: no_hazard                        :     8546   16.83%
[2026-02-10 00:57:21] INFO: Loading Normalization
[2026-02-10 00:57:25] INFO: Test batches: 385
[2026-02-10 00:57:25] INFO: 
----------- Test Statistics -----------
[2026-02-10 00:57:25] INFO: Test videos total samples: 226
[2026-02-10 00:57:25] INFO: Test videos samples per class:

[2026-02-10 00:57:25] INFO: object_crossing                  :       14     6.19%
[2026-02-10 00:57:25] INFO: red_crossing_traffic_light       :        9     3.98%
[2026-02-10 00:57:25] INFO: object_emerging                  :       18     7.96%
[2026-02-10 00:57:25] INFO: object_meeting                   :       12     5.31%
[2026-02-10 00:57:25] INFO: right_cut_in                     :       23    10.18%
[2026-02-10 00:57:25] INFO: left_cut_in                      :       13     5.75%
[2026-02-10 00:57:25] INFO: object_turning                   :       17     7.52%
[2026-02-10 00:57:25] INFO: object_stopping                  :       15     6.64%
[2026-02-10 00:57:25] INFO: object_reversing                 :        5     2.21%
[2026-02-10 00:57:25] INFO: object_hazard_light_on           :       13     5.75%
[2026-02-10 00:57:25] INFO: pedestrian_near_parked_vehicles  :       15     6.64%
[2026-02-10 00:57:25] INFO: object_coming_out                :        6     2.65%
[2026-02-10 00:57:25] INFO: object_pulling_up                :        8     3.54%
[2026-02-10 00:57:25] INFO: road_works                       :        8     3.54%
[2026-02-10 00:57:25] INFO: no_hazard                        :       50    22.12%
[2026-02-10 00:57:25] INFO: Test sequences total samples: 12301
[2026-02-10 00:57:25] INFO: Test sequence per class:

[2026-02-10 00:57:25] INFO: object_crossing                  :      527   4.28%
[2026-02-10 00:57:25] INFO: red_crossing_traffic_light       :      705   5.73%
[2026-02-10 00:57:25] INFO: object_emerging                  :      619   5.03%
[2026-02-10 00:57:25] INFO: object_meeting                   :      419   3.41%
[2026-02-10 00:57:25] INFO: right_cut_in                     :     1545   12.56%
[2026-02-10 00:57:25] INFO: left_cut_in                      :      852   6.93%
[2026-02-10 00:57:25] INFO: object_stopping                  :      533   4.33%
[2026-02-10 00:57:25] INFO: object_reversing                 :      325   2.64%
[2026-02-10 00:57:25] INFO: pedestrian_near_parked_vehicles  :      599   4.87%
[2026-02-10 00:57:25] INFO: object_hazard_light_on           :     1199   9.75%
[2026-02-10 00:57:25] INFO: object_turning                   :     1529   12.43%
[2026-02-10 00:57:25] INFO: road_works                       :      727   5.91%
[2026-02-10 00:57:25] INFO: object_coming_out                :      384   3.12%
[2026-02-10 00:57:25] INFO: object_pulling_up                :      554   4.50%
[2026-02-10 00:57:25] INFO: no_hazard                        :     1784   14.50%
[2026-02-10 00:57:25] INFO: Dataset initialization completed successfully
[2026-02-10 00:57:32] INFO: ----------- Getting Loss Function -----------
[2026-02-10 00:57:32] INFO: Loss Function: FocalLoss
[2026-02-10 00:57:32] INFO: Class weights: tensor([1.0518, 0.3961, 2.3720, 1.4440, 1.2145, 0.8260, 1.9199, 1.6666, 1.9887,
        0.9238, 0.6677, 1.0338, 1.2653, 0.6662, 1.0943], device='cuda:0')
[2026-02-10 03:17:19] INFO: ---- Average execution times ----
[2026-02-10 03:17:19] INFO: create_temporal_sequences: 9.4294 s over 2 calls
[2026-02-10 03:17:19] INFO: __init__: 12.4644 s over 2 calls
[2026-02-10 03:17:19] INFO: RoadHazardDataset: 12.4644 s over 2 calls
[2026-02-10 03:17:19] INFO: create_or_load_dataset: 25.0044 s over 1 calls
[2026-02-10 03:17:19] INFO: build_img_tensor: 0.1240 s over 63105 calls
[2026-02-10 03:17:19] INFO: __getitem__: 0.1251 s over 63105 calls
[2026-02-10 03:17:19] INFO: load_model: 7.8046 s over 1 calls
[2026-02-10 03:17:19] INFO: forward_pass: 0.0067 s over 1972 calls
[2026-02-10 03:17:19] INFO: run_epoch: 4189.9713 s over 2 calls
[2026-02-10 03:17:19] INFO: log_results: 0.0079 s over 2 calls
[2026-02-10 05:36:18] INFO: ---- Average execution times ----
[2026-02-10 05:36:18] INFO: create_temporal_sequences: 9.4294 s over 2 calls
[2026-02-10 05:36:18] INFO: __init__: 12.4644 s over 2 calls
[2026-02-10 05:36:18] INFO: RoadHazardDataset: 12.4644 s over 2 calls
[2026-02-10 05:36:18] INFO: create_or_load_dataset: 25.0044 s over 1 calls
[2026-02-10 05:36:18] INFO: build_img_tensor: 0.1236 s over 126178 calls
[2026-02-10 05:36:18] INFO: __getitem__: 0.1247 s over 126178 calls
[2026-02-10 05:36:18] INFO: load_model: 7.8046 s over 1 calls
[2026-02-10 05:36:18] INFO: forward_pass: 0.0063 s over 3944 calls
[2026-02-10 05:36:18] INFO: run_epoch: 4178.4533 s over 4 calls
[2026-02-10 05:36:18] INFO: log_results: 0.0102 s over 4 calls
[2026-02-10 07:56:05] INFO: ---- Average execution times ----
[2026-02-10 07:56:05] INFO: create_temporal_sequences: 9.4294 s over 2 calls
[2026-02-10 07:56:05] INFO: __init__: 12.4644 s over 2 calls
[2026-02-10 07:56:05] INFO: RoadHazardDataset: 12.4644 s over 2 calls
[2026-02-10 07:56:05] INFO: create_or_load_dataset: 25.0044 s over 1 calls
[2026-02-10 07:56:05] INFO: build_img_tensor: 0.1236 s over 189251 calls
[2026-02-10 07:56:05] INFO: __getitem__: 0.1246 s over 189251 calls
[2026-02-10 07:56:05] INFO: load_model: 7.8046 s over 1 calls
[2026-02-10 07:56:05] INFO: forward_pass: 0.0063 s over 5916 calls
[2026-02-10 07:56:05] INFO: run_epoch: 4182.5656 s over 6 calls
[2026-02-10 07:56:05] INFO: log_results: 0.0122 s over 6 calls
[2026-02-10 10:15:52] INFO: ---- Average execution times ----
[2026-02-10 10:15:52] INFO: create_temporal_sequences: 9.4294 s over 2 calls
[2026-02-10 10:15:52] INFO: __init__: 12.4644 s over 2 calls
[2026-02-10 10:15:52] INFO: RoadHazardDataset: 12.4644 s over 2 calls
[2026-02-10 10:15:52] INFO: create_or_load_dataset: 25.0044 s over 1 calls
[2026-02-10 10:15:52] INFO: build_img_tensor: 0.1236 s over 252324 calls
[2026-02-10 10:15:52] INFO: __getitem__: 0.1246 s over 252324 calls
[2026-02-10 10:15:52] INFO: load_model: 7.8046 s over 1 calls
[2026-02-10 10:15:52] INFO: forward_pass: 0.0063 s over 7888 calls
[2026-02-10 10:15:52] INFO: run_epoch: 4184.6811 s over 8 calls
[2026-02-10 10:15:52] INFO: log_results: 0.0126 s over 8 calls
[2026-02-10 12:35:27] INFO: ---- Average execution times ----
[2026-02-10 12:35:27] INFO: create_temporal_sequences: 9.4294 s over 2 calls
[2026-02-10 12:35:27] INFO: __init__: 12.4644 s over 2 calls
[2026-02-10 12:35:27] INFO: RoadHazardDataset: 12.4644 s over 2 calls
[2026-02-10 12:35:27] INFO: create_or_load_dataset: 25.0044 s over 1 calls
[2026-02-10 12:35:27] INFO: build_img_tensor: 0.1236 s over 315397 calls
[2026-02-10 12:35:27] INFO: __getitem__: 0.1246 s over 315397 calls
[2026-02-10 12:35:28] INFO: load_model: 7.8046 s over 1 calls
[2026-02-10 12:35:28] INFO: forward_pass: 0.0064 s over 9860 calls
[2026-02-10 12:35:28] INFO: run_epoch: 4184.8419 s over 10 calls
[2026-02-10 12:35:28] INFO: log_results: 0.0114 s over 10 calls
